<svg xmlns="http://www.w3.org/2000/svg" shape-rendering="geometricPrecision" text-rendering="geometricPrecision" image-rendering="optimizeQuality" fill-rule="evenodd" clip-rule="evenodd" viewBox="0 0 435 512.221"><path d="M397.263 0C418.028 0 435 16.975 435 37.739v436.678c0 10.377-4.25 19.816-11.086 26.652-6.837 6.836-16.275 11.085-26.651 11.085-116.243 0-232.484.067-348.725.067-20.767 0-37.739-16.971-37.739-37.739v-28.317H6.804a6.803 6.803 0 110-13.607h3.995V370.67H6.804a6.803 6.803 0 110-13.607h3.995v-61.888H6.804a6.804 6.804 0 110-13.607h3.995v-61.889H6.804a6.803 6.803 0 110-13.607h3.995v-61.887H6.804a6.804 6.804 0 010-13.608h3.995V68.69H6.804a6.804 6.804 0 010-13.608h3.995V37.798C10.799 17.021 27.761.059 48.538.059 164.778.059 281.022 0 397.263 0zM168.586 297.698a7.654 7.654 0 010-15.307h185.611a7.654 7.654 0 010 15.307H168.586zm0-196.349a7.654 7.654 0 010-15.307h185.611a7.654 7.654 0 010 15.307H168.586zm0 65.449a7.653 7.653 0 110-15.306h185.611a7.653 7.653 0 010 15.306H168.586zm0 65.85a7.653 7.653 0 110-15.306h185.611a7.653 7.653 0 010 15.306H168.586zm75.744 194.657a7.654 7.654 0 010-15.307h103.062a7.654 7.654 0 010 15.307H244.33zm-75.744-64.804a7.654 7.654 0 010-15.307h178.806a7.654 7.654 0 010 15.307H168.586zM51.054 68.69h-30.05v61.887h30.05c2.649-6.222 8.818-10.587 16.008-10.587 9.605 0 17.391 7.786 17.391 17.391 0 9.604-7.786 17.39-17.391 17.39-7.19 0-13.359-4.364-16.008-10.586h-30.05v61.887h30.05c2.649-6.222 8.818-10.587 16.008-10.587 9.605 0 17.391 7.787 17.391 17.391s-7.786 17.39-17.391 17.39c-7.19 0-13.359-4.364-16.008-10.587h-30.05v61.889h30.05c2.649-6.223 8.818-10.587 16.008-10.587 9.605 0 17.391 7.786 17.391 17.39 0 9.605-7.786 17.391-17.391 17.391-7.19 0-13.359-4.364-16.008-10.587h-30.05v61.888h30.05c2.647-6.224 8.818-10.588 16.008-10.588 9.605 0 17.391 7.787 17.391 17.391s-7.786 17.39-17.391 17.39c-7.189 0-13.359-4.363-16.008-10.586h-30.05v61.888h30.05c2.649-6.223 8.818-10.587 16.008-10.587 9.605 0 17.391 7.786 17.391 17.391 0 9.604-7.786 17.39-17.391 17.39-7.19 0-13.359-4.364-16.008-10.587h-30.05v28.317c0 15.144 12.408 27.534 27.534 27.534h53.69V10.264h-53.69c-15.144 0-27.534 12.39-27.534 27.534v17.284h30.05c2.649-6.222 8.818-10.586 16.008-10.586 9.605 0 17.391 7.785 17.391 17.39 0 9.604-7.786 17.39-17.391 17.39-7.19 0-13.359-4.364-16.008-10.586zm61.368-58.826h284.841c15.142 0 27.532 12.413 27.532 27.535v438.552c0 15.121-12.413 27.532-27.532 27.532H112.422V9.864z"/></svg>